<?xml version="1.0" encoding="UTF-8"?>
<svg id="Layer_1" data-name="Layer 1" xmlns="http://www.w3.org/2000/svg" viewBox="0 0 50 20">
  <defs>
    <style>
      .cls-1 {
        fill: #fff;
      }
    </style>
  </defs>
  <polygon points="11.51 16.12 11.51 16.12 11.51 16.12 11.51 16.12"/>
  <polygon points="11.93 15.95 11.93 15.95 11.93 15.95 11.93 15.95 11.93 15.95"/>
  <path class="cls-1" d="M10,19.92c1.55,0,3.02-.36,4.33-1-.01-.04-.02-.07-.04-.1l-.83-.74c-.1-.07-.21-.13-.3-.18-.31-.17-.6-.27-.87-.31,0-.03,0-.05,0-.07-.04-.16-.05-.25-.05-.28,0-.02,0-.04,0-.06.04-.13.06-.21.05-.23,0-.02,0-.04-.02-.07-.05-.08-.09-.17-.13-.25-.02-.06-.04-.12-.06-.19-.02-.06-.03-.15-.04-.27,0,0,0,0,0,0,0,0,0-.01,0-.02,0,0,0-.01.01-.02.34-.16.62-.37.83-.63l.07-.09s.01-.02.01-.03l.05-.26c.01-.07-.02-.16-.11-.3,0,0,0,0,.01,0h0s.04-.03.07-.03c.04,0,.08.01.14.02,0,0,.01,0,.02,0,.07.02.11.03.11.04.24.11.43.23.57.36.02.01.08.02.19.03.01,0,.02.03.04.06.02.08.03.14.04.17,0,.02.03.06.07.13.05.06.1.08.16.08.03,0,.05-.01.07-.04.02-.05.03-.09.03-.13l-.14-.33c-.02-.15-.05-.26-.08-.33v-.03s-.17-.28-.17-.28l-.26-.32s0,0,0,0c-.04-.11-.07-.2-.11-.26,0-.02-.01-.04-.02-.06,0-.02,0-.03,0-.05,0-.04-.03-.08-.06-.11h0s0,0,0,0h-.01s-.07-.04-.11-.03c-.04,0-.07.03-.09.05-.05.05-.1.09-.14.11l-.22.02-.17.03c-.08,0-.13-.02-.16-.04-.04-.02-.08-.05-.11-.08-.04-.05-.06-.09-.07-.13-.04-.23-.06-.36-.07-.39l-.22-.73s-.03-.08-.05-.12c-.02-.04-.03-.07-.04-.07-.01-.02-.03-.04-.04-.06,0,0,0,0,0,0,0-.04-.01-.09-.02-.13l-.03-.46s0-.08,0-.13c.04-.6.06-.91.06-.93l-.09-.32c-.02-.06-.04-.13-.07-.18,0,0,0,0,0,0-.09-.17-.11-.36-.08-.54l.11-.65c.01-.07.04-.14.07-.2.06-.1.13-.16.22-.21,0-.01.03.04.11.14.03.04.09.04.12,0,0,0,0,0,0,0,0-.01,0-.02,0-.04l-.04-.29s0,0,0-.01l.04-.78s0,.09,0,.16c.03.21.04.36.05.45.02-.1.03-.14.05-.1-.02.22-.02.33-.02.33.03,0,.06-.11.09-.31,0,0,0,.03.01.11,0,.06,0,.12,0,.19,0,.01,0,.02,0,.02,0,0,0,0,0,0l.03-.28s0-.03,0-.04c0,0,0-.03,0-.05-.03-.1-.06-.17-.07-.21,0-.02,0-.05,0-.09,0-.07,0-.14,0-.22,0-.04.02-.04.02,0,0,0,0-.02,0-.04l-.02-.23c-.01-.05-.04-.11-.06-.18,0-.01,0-.03,0-.04,0-.01-.01-.09-.02-.23.04.04.06.02.06-.05-.05-.15-.08-.28-.09-.4,0,0,0-.1-.03-.28l.03-.07c-.05-.08-.08-.14-.08-.17l-.03-.31c-.02-.05-.04-.16-.05-.32l-.04-.17s-.03-.08-.05-.14c-.04-.05-.07-.11-.11-.16-.03-.04-.06-.11-.1-.2,0,0-.01-.02-.03-.04-.03-.03-.08-.08-.15-.13,0,0-.02,0-.02,0-.16-.17-.3-.26-.41-.26h-.09c-.09.03-.2.07-.31.13-.11.05-.18.08-.2.08-.02,0-.04,0-.05,0-.02,0-.03.01-.04.03,0,0,0,.02-.01.03,0,.01-.03.04-.09.06-.01,0-.03,0-.07,0-.11,0-.21.01-.3.06h-.02s-.02.07,0,.1c0,.01-.01.04-.03.07-.06.01-.1.05-.11.1,0,0,0,0-.01,0-.01,0-.02,0-.03,0-.01,0-.03.01-.03.03l-.03.08s-.07.05-.09.08c-.02.03-.02.08,0,.13.17.15.26.26.26.31,0,.11.01.3.05.57,0,.02,0,.08-.02.18-.02.08-.04.17-.08.25-.11.15-.27.35-.51.62,0,0,0,.02-.01.03-.06.04-.12.02-.17-.05,0-.01,0-.02-.01-.04-.01-.46-.02-.91-.03-1.34,0-.05-.01-.12-.03-.2-.13-.34-.2-.56-.21-.66,0-.02.01-.04.03-.04h0c.06,0,.19.03.38.1,0,0,.02,0,.03,0h0s.05-.02.06-.05l.03-.08s.03-.05.05-.06l.2-.13s.03-.03.04-.05c.01-.05.02-.08.03-.1,0-.01.02-.02.03-.03.03,0,.05,0,.07-.01.03,0,.04-.03.05-.05.02-.12.05-.22.07-.31,0,0,.02-.01.02-.02,0-.03,0-.06,0-.09.03-.1.06-.19.1-.24.06-.1.09-.16.11-.16.03-.02.07-.02.11-.01.02,0,.03,0,.03-.02,0-.07.02-.13.04-.16,0,0,0,0,0,0l.02-.03s0,0,0,0l.11-.08s.02-.03,0-.04c-.02-.02-.05-.06-.1-.1-.01-.06-.1-.21-.26-.44,0,0-.04-.04-.11-.1-.35-.24-.64-.36-.86-.36h-.01s-.11.03-.21.08l-.16.22c-.17.09-.25.15-.27.18-.02.03-.03.1-.04.22-.07.08-.1.13-.11.14-.04.17-.05.28-.04.33-.08.18-.11.3-.11.37-.02.03-.14.1-.36.23h0s0,0,0,0c0-.03-.17.15-.55.53-.17.19-.3.34-.38.47-.08.16-.18.43-.31.79-.12.33-.19.65-.22.98l.04.85v1.27c0,.11-.01.35-.02.7,0,0,0,0,0,0-.02.16-.04.33-.05.49,0,0,0,0,0,0,0,.05.02.12.04.21,0,0,0,0,0,0,.16.25.24.38.24.4.08.57.13.92.16,1.05,0,0,0,0,0,0,.18.53.28.93.31,1.19l.04.5c-.03.38-.04.69,0,.92,0,.04,0,.07,0,.11-.03.27-.04.4-.04.41l.07,1.5s0,.02,0,.03c0,.25,0,.38,0,.41.03.38.06.63.08.76,0,.03,0,.05,0,.08v.59s-.66-.13-.66-.13c-.15-.02-.3-.03-.45-.01-.18.03-.33.08-.45.14-.11.04-.23.14-.37.3v.5c.26.14.54.26.83.37,1.11.43,2.31.66,3.57.66ZM8.17,13.4s0-.03,0-.04c0,0,0,0,0,0,0,0,0,0,0-.01,0,0,0-.02,0-.02,0,0,0,0,0,0,0-.01,0-.02,0-.03v-.03s0-.04,0-.05c0,0,0-.01,0-.01,0,0,0,0,0,0h0s0,0,0,0c0,0,0,0,0,0,0,0,0,0,0,0,0,0,0,0,0,0,0,0,0,0,0,0,0,0,0,0,0,.01,0,0,0,0,0,0l.02.41h0s0-.04,0-.06c0-.02,0-.04,0-.04,0,0,0,0,0,0,0-.03,0-.06,0-.09v-.04ZM8.33,15.91v-.08s0,0,0,0c0-.03,0-.06,0-.09-.03-.25-.06-.47-.08-.65-.03-.19-.04-.31-.05-.37,0,0,0,0,0,0,0-.02,0-.04,0-.06,0-.01,0-.02,0-.03,0-.04,0-.09,0-.15h0s0,0,0,0c0-.02,0-.06,0-.11,0-.05,0-.11,0-.17h0s0-.41,0-.41v-.13s0,0,0,0h0s0,0,0,0h0s.02.21.02.21c0,.2.02.39.03.56l.02.16s0,.02,0,.03c0,.04.01.07.02.1,0,.04.01.08.02.12,0,0,0,.01,0,.02,0,0,0,0,0,0,0,0,0,0,0,0,0,0,0,0,0,0,0,0,0,0,0,0,0,0,0,0,0,.01,0,0,0,0,0,0,0,0,0,0,0,0,0,0,0,0,0,0,0,0,0,0,0,0,0,0,0,0,0,0,0,0,0,0,0,0,0,0,0,0,0,0,0,0,0,0,0,.01,0,0,0,.01,0,.02,0,0,0,0,0,0,0,0,0,0,0,0,0,0,0,0,0,0,0,0,0,0,0,0,0,0,0,0,0,0,0,0,0,0,0,0,0,0,0,0,0,0,0,0,0,0,0,0,0,0,0,0,0,0,0,.01,0,.03,0,.04,0,.01,0,.02,0,.03,0,.01,0,.03,0,.07,0,.03,0,.08,0,.14,0,0,0,0,0,0,0,.06,0,.13,0,.19,0,0,0,0,0,.01,0,.02,0,.04,0,.06,0,0,0,0,0,0,0,0,0,0,0,0,0,.04,0,.08,0,.12,0,0,0,.01,0,.02,0,.04,0,.08,0,.11v.16ZM8.36,16.3c0-.08-.02-.17-.02-.26,0,0,0,0,0,0,0,0,0-.01,0-.02,0,0,0-.01,0-.02,0-.02,0-.04,0-.05,0,0,0-.01,0-.02h0s0,0,0,0v.03s.07.39.07.39c0,0,0,.02,0,.03,0,0,0,0,0,0,0,0,0,.02,0,.03,0,0,0,0,0,0,0,0,0,0,0,.01,0,.02,0,.03,0,.05,0,0,0,0,0,0,0,.02,0,.04,0,.07h0s0,.02,0,.03c0,0,0,.02,0,.02,0,.02,0,.04,0,.06,0,0,0,0,0,0,0-.06-.02-.12-.02-.17,0-.06-.01-.12-.02-.17ZM8.48,17.46v-.02s-.01-.04-.01-.06c0-.02,0-.04-.01-.07,0-.02,0-.05-.01-.07-.01-.07-.02-.14-.03-.18,0-.01,0-.02,0-.04,0-.03,0-.06-.01-.1,0-.01,0-.03,0-.05,0-.02,0-.04,0-.05,0-.06.01-.12.02-.17h0s0,0,0,0h0s0,0,0,0h0s.02.14.04.3c.01.07.02.16.04.25,0,.03.01.07.02.11,0,.02,0,.06.01.09,0,.06.02.16.03.29,0,.02,0,.04.01.07,0,.01,0,.03,0,.04l-.08-.34ZM8.64,10.97s0,0,0,0c0,0-.02,0-.02,0,0,0-.01,0-.02,0-.01,0-.02,0-.03-.01,0,0,0,0-.01,0,0,0-.02-.01-.02-.02,0,0,0,0-.01-.01-.01,0-.02.01-.03.02,0,0,0,0,0,0,0,0-.02,0-.02,0,0,0-.01,0-.02,0,0,0,0,0,0,0,0,0-.01,0-.02,0,0,0,0,0,0,0,0,0,0,0,0,0-.01,0-.03,0-.05,0-.03,0-.05-.02-.07-.02,0,0-.01,0-.02,0,0,0,0,0-.01,0-.02-.01-.05-.02-.07-.04,0,0,0,0,.01,0,0,0,0,0,0,0h.06s.06-.03.06-.03c0,0,0,0,0,0,.01,0,.02,0,.03,0h0s.02,0,.02,0c0,0,.01,0,.02,0,.01,0,.03,0,.04.01.02.01.03.02.04.02,0,0,0,0,0,0,0,0,0,0,0,0,0,0,.01.01.02.02.01,0,.02,0,.03,0,0,0,.02,0,.02-.01h0s.02,0,.02,0c0,0,.01,0,.02,0,0,0,0,0,0,0,0,0,0,0,0,0,0,0,.03,0,.05,0,0,0,0,0,.02,0,.01,0,.03,0,.05,0,0,0,.02,0,.03,0h0s0,0,0,0c0,0,.01,0,.02,0,0,0,0,0,0,0,0,0,0,0,0,0,0,0,.01,0,.02,0,0,0,0,0,0,0h0s0,0,0,0c-.04.02-.1.05-.18.09ZM11.78,16.03s-.08.05-.09.05c-.03.01-.06.02-.09.03-.04,0-.07,0-.09,0,0,0,0,0,0,0-.02,0-.04.01-.06.01-.01,0-.03,0-.06,0-.02,0-.03,0-.03,0,0,0-.01-.01,0-.02.01,0,.03,0,.04,0,.02,0,.03,0,.04,0,.02,0,.05,0,.08,0,0,0,0,0,0,0,0,0,0,0,0,0h0l.14-.06s.09-.02.13-.03h0ZM12.01,15.89s-.02.03-.04.04c0,0,0,0,0,0,0,0,0,0,0,0,0,0,0,0,0,0,0,0,0,0-.01,0,0,0,0,0,0,0,0,0,0,0,0,0,0,0,0,0,0,0,0,0,0,0,0,0,0,0,0,0,0,0,0,0,0,0,0,0,0,0,0,0,0,0,0,0,0,0,0,0,0,0,0,0,0,0,0,0,0,0,0,0,0,0,0,0,0,0,0,0,0,0,0,0,0,0,0,0,0,0,0,0,0,0,0,0,0,0,0,0,0,0,0,0,0,0,0,0,0,0,0,0,0,0,0,0,0-.01-.02-.02,0,0,0,0,0,0,0,0,0,0,0,0l.03-.03s.04-.04.05-.06l.02-.02s.01-.01.02-.02c0,0,0,0,0,0,.01-.02.02-.03.03-.05h0l-.06.16ZM12.25,14.6h0s.02.02.04.03c0,0,.03.02.05.04l-.09-.07s0,0,0,0ZM11.58,14.32h0s.06.01.09.02c.07.02.12.04.16.05.1.02.15.03.16.04.02,0,.06.03.11.06.02.01.06.05.13.1-.03-.02-.07-.04-.1-.05-.17-.05-.25-.08-.25-.08,0,0,0,0-.01,0l-.17-.09s-.04-.02-.07-.03l-.06-.02h0s0,0,0,0ZM11.42,14.26s-.01,0-.02,0l-.04-.03-.06-.04s0,0,0,0h0c.1.05.19.1.27.14-.05-.02-.11-.04-.16-.07ZM10.91,9.9l.31-.25.02-.02c.06-.08.1-.17.13-.26,0-.05.01-.08.01-.11,0-.05-.02-.11-.05-.18,0,0,0-.02,0-.04,0-.02.01-.05.04-.1,0-.02,0-.03,0-.04,0-.01,0-.02-.01-.04-.03-.07-.07-.14-.1-.21,0-.02-.02-.06-.04-.12-.03-.1-.03-.17-.02-.2l.09.24c.07.11.11.21.13.31,0,0,0,.07,0,.19.02.08.03.13.03.16,0,.06,0,.12-.02.17-.02.07-.08.15-.17.26-.04.04-.12.1-.26.19-.07.09-.12.15-.15.17.04-.07.06-.11.09-.13ZM11.18,14.11h0s.07.05.1.07c-.02,0-.03-.02-.04-.02,0,0,0,0,0,0,0,0,0,0-.01,0,0,0-.01,0-.02-.02,0,0-.02-.01-.02-.02,0,0,0,0,0,0ZM11.17,14.11c-.06-.04-.09-.06-.09-.06-.02-.02-.06-.05-.13-.12-.01,0-.04-.03-.08-.05,0,0,0,0,0,0h0s.04,0,.07.02c.02,0,.03.02.05.03.11.11.17.17.19.18ZM10.7,10.14s.08-.08.12-.11h0s-.05.09-.08.12h0s-.08.08-.08.08c.01-.02.03-.05.05-.08ZM10.65,10.23h0s0,0,0,0c-.01.02-.02.03-.03.04,0,0-.02.02-.03.04l-.17.14s-.01,0-.01,0c0,0,0-.01,0-.02,0,0,0-.01.02-.03l.02-.02c.07-.05.13-.11.2-.16ZM9.89,7.76s.02-.01.05-.02c.06,0,.09,0,.1-.01.02,0,.05-.02.09-.04,0,0,.03-.03.1-.08.06-.04.09-.06.1-.07l.13-.15-.1.15s-.03.04-.04.04l-.04.03s-.06.02-.06.03c0,0-.03.03-.07.07,0,0-.01,0-.04.02-.04.02-.08.03-.1.04-.02,0-.04,0-.06,0-.02,0-.03,0-.03-.01ZM9.06,11.61c.07-.27.12-.49.14-.65,0,0,0,0,0,0,.02-.32.04-.63.05-.92,0,0,0,0,0,0,0-.02.01-.04.02-.06,0,0,.01-.08.03-.22,0,0,0,0,0,0,0,0,0,0,0,0,0-.02.04-.02.04,0,.04.18.1.42.17.73l.11,1.09c0,.07,0,.28,0,.63,0,.1-.03.34-.08.72,0,.1,0,.21,0,.32.04.32.1.61.18.88.18.42.4,1.04.65,1.85.04.05.12.05.23-.02.06-.03.13-.02.16.04h0s.06.06.11.05c.12,0,.22,0,.3.04.02,0,.04.02.05.04.02.02.04.05.07.09.02.12.05.31.1.55,0,.04,0,.09.01.15,0,.06-.02.15-.06.29,0,.03,0,.06,0,.1,0,.08.04.2.1.34,0,0,0,0,0,0-1.01.26-1.75.43-2.22.52l.09-.22c.02-.06.03-.16.05-.31,0-.02,0-.03,0-.04,0-.05,0-.1-.02-.15-.05-.14-.09-.31-.14-.5,0-.01,0-.03,0-.04l-.07-.46s0-.03,0-.05c0-.02,0-.04,0-.05,0-.15,0-.27,0-.34,0-.02,0-.04,0-.06-.02-.14-.05-.42-.09-.85,0-.01,0-.02,0-.03,0-.14-.01-.39-.03-.74,0-.04,0-.08,0-.1.02-.18.02-.29.02-.33l-.02-.92v-.51c0-.07.01-.17.03-.31,0,0,0,0,0,0v-.06s0,0,0,0c.02-.24.04-.41.04-.51,0,0,0,0,0,0ZM9.01,10.63s.01-.02.01-.02h0s-.03.06-.04.08c-.01.02-.03.04-.04.06l-.06.08s0,0,0,0l.06-.1s0,0,0,0c0,0,.01-.02.02-.03,0,0,0,0,0,0,0,0,.01-.02.02-.02,0-.01.01-.02.02-.03,0-.01.01-.02.02-.03ZM8.77,4.11h0s0,0,0,0h0s0,0,0,0h0s.02.02.03.03c0,.01.02.03.03.05,0,0,0,0,0,0,0,0,0,0,0,0,0,0,0,.01.01.02,0,0,0,0,0,0,0,0,0,.01.01.02,0,0,0,0,0,0,0,0,0,.01.01.02,0,0,0,0,0,0,0,0,0,.02.01.03,0,.02.02.04.02.06,0,0,0,.01,0,.02,0,.01.01.03.02.04,0,.02.01.03.02.05,0,0,0,.01,0,.02,0,0,0,.01,0,.02,0,.02.01.04.02.06,0,0,0,0,0,0l-.15-.31-.07-.15h0ZM8.51,7.43s.01.05.02.07c.02.05.04.1.06.14,0,0,0,0,0,.01l.03.06c.04.09.07.15.08.17,0,.01.05.05.12.13l.07.11s.02.05.04.12c0,.05.01.07,0,.07l-.08-.07c0,.05-.02.06-.07.01-.04-.03-.1-.12-.17-.26-.03-.06-.06-.12-.09-.19,0,0,0-.02,0-.02,0-.01-.01-.03-.02-.04l-.04-.18c-.04-.12-.08-.24-.11-.36l-.04-.11s0-.03,0-.03h0s.05.05.09.14c.03.08.06.16.08.24,0,0,0,0,0,.01ZM8.27,3.93h.02s0-.02,0-.02c0,0,.01,0,.02,0h0s.15,0,.15,0h0s-.19.05-.19.05h0s-.03,0-.04,0c0,0,.02-.02.04-.03ZM8.13,4.02s0,0,0,0c.01-.01.02-.02.03-.03.02-.01.04-.02.05-.02h0s-.05.05-.13.11l.04-.05ZM7.99,4.17h0s.05-.05.08-.08c0,0,.02-.01.02-.02h0,0s-.03.04-.03.05c0,0-.02.02-.02.03h-.01s-.01.02-.02.02c0,0-.01,0-.01,0,0,0,0,0,0,0,0,0,0,0,0,0ZM7.87,10.86h0s0,0,0,0h0s0,0,0,0h0s0,0,0,0c0,.02.01.04.02.05,0,.02.01.04.01.06,0,.04.02.08.02.12,0,.02,0,.04.01.06,0,0,0,0,0,0,0,.02,0,.03,0,.05,0,0,0,0,0,.01,0,.02,0,.04,0,.05h0s0,.01,0,.02c0,.03,0,.07,0,.13,0,0,0,0,0,0l-.08-.56h0ZM7.52,10.71s-.02-.01-.03-.02c0,0,0,0,0,0,0,0-.02,0-.02-.01-.02,0-.03-.02-.04-.02,0,0-.02-.01-.02-.02,0,0-.02-.01-.02-.02,0,0-.02-.02-.03-.03,0,0,0,0,0,0l-.08-.08s-.02-.02-.03-.03h0s0,0,0,0l.03.02h0s.09.07.09.07l.08.05s0,0,0,0l.08.07s0,0,0,0c0,0,0,0,0,0,0,0,0,0,0,0Z"/>
  <polygon points="11.93 15.95 11.94 15.95 11.93 15.95 11.93 15.95"/>
  <path d="M11.92,15.93s0,0,0,0c0,0,0,0,0,0Z"/>
  <polygon points="11.94 15.95 11.94 15.95 11.93 15.95 11.94 15.95"/>
  <path d="M11.93,15.94s0,0,0,0c0,0,0,0,0,0Z"/>
  <path d="M11.94,15.96s0,0,0,0h0Z"/>
  <path class="cls-1" d="M19.21,6.11c-.5-1.19-1.22-2.26-2.14-3.18-.92-.92-1.99-1.64-3.18-2.14-1.23-.52-2.54-.79-3.89-.79s-2.66.26-3.89.79c-1.19.5-2.26,1.22-3.18,2.14-.92.92-1.64,1.99-2.14,3.18-.52,1.23-.79,2.54-.79,3.89s.26,2.66.79,3.89c.5,1.19,1.22,2.26,2.14,3.18.05.05.11.11.17.16.03.03.06.06.09.09.07.07.15.14.22.2.38.34.79.64,1.22.91.1.06.2.13.31.19.04.03.09.05.13.08.13.08.27.15.41.22.04.02.08.04.12.06.17.08.34.16.52.24.11.04.21.09.32.13,1.14.44,2.34.66,3.57.66,1.35,0,2.66-.26,3.89-.79.16-.07.31-.14.46-.21.39-.19.77-.41,1.14-.65.14-.09.27-.18.4-.28.02-.01.03-.02.05-.04,0,0,0,0,0,0,.1-.07.19-.15.29-.22.1-.08.2-.17.3-.25.13-.11.25-.22.37-.34.05-.05.1-.1.16-.15.12-.12.24-.24.35-.37.75-.83,1.35-1.77,1.79-2.81.52-1.23.79-2.54.79-3.89s-.26-2.66-.79-3.89ZM17.32,16.69c-.16.17-.32.34-.49.5-.12.12-.25.23-.38.34-.1.09-.2.17-.31.25-.1.08-.2.15-.3.23,0,0-.01.01-.02.02-.02.01-.03.03-.05.04-.12.09-.25.17-.38.26-.34.22-.7.43-1.07.61-1.31.64-2.78,1-4.33,1-1.26,0-2.46-.23-3.57-.66-.29-.11-.57-.24-.84-.37-.03-.01-.06-.03-.09-.04-.1-.05-.2-.1-.3-.16-.09-.05-.18-.1-.26-.15-.09-.05-.18-.11-.26-.16-.39-.25-.77-.53-1.12-.83-.05-.04-.1-.09-.16-.14-.07-.06-.14-.12-.21-.19C1.28,15.4.08,12.84.08,10,.08,4.53,4.53.08,10,.08s9.92,4.45,9.92,9.92c0,2.57-.99,4.92-2.6,6.69Z"/>
  <g>
    <path class="cls-1" d="M21.98,10.6l.45-1.52c.03-.12.07-.2.1-.25.02-.03.05-.05.09-.07h0s-.03,0-.03,0c-.04,0-.11.02-.23.06-.13.04-.22.07-.26.07-.03,0-.04,0-.05-.01,0,0-.01-.02-.01-.05,0-.05.01-.11.04-.17s.07-.11.11-.16c.05-.05.09-.08.14-.1.11-.04.26-.08.45-.1.19-.02.39-.04.62-.04.24,0,.44.04.61.11.17.07.29.19.38.33.09.15.13.32.13.53s-.04.42-.12.63c-.08.21-.19.39-.33.53-.32.34-.75.51-1.28.51-.17,0-.33-.01-.47-.04-.14-.03-.24-.06-.28-.1-.03-.02-.04-.06-.04-.1,0-.01,0-.03,0-.05ZM23.26,8.71l-.38,1.44s0,.03-.01.07c-.02.1-.05.18-.08.23-.02.04-.05.09-.1.14.04,0,.08,0,.12,0,.11,0,.2,0,.28-.02.07-.01.14-.04.21-.08s.12-.08.18-.14c.1-.11.19-.23.24-.37s.08-.3.08-.46c0-.15-.02-.29-.07-.41s-.11-.22-.19-.29c-.08-.07-.17-.11-.28-.12Z"/>
    <path class="cls-1" d="M25.93,10.36h0s0,0,0,0c-.12.14-.23.25-.32.34s-.19.15-.27.2-.16.07-.23.07c-.14,0-.26-.05-.35-.14s-.14-.22-.14-.36c0-.09.02-.2.07-.32.05-.12.11-.24.19-.36.13-.19.3-.36.5-.49.21-.14.41-.21.6-.21.16,0,.3.03.4.1.1.07.16.15.16.25,0,.07-.03.15-.08.24.07,0,.11,0,.13.02.02.01.03.05.03.1,0,0,0,.02,0,.08,0,.13-.01.24-.01.35,0,.06,0,.1,0,.13,0,.03,0,.06,0,.1,0,.04,0,.07.01.09.01.06.03.12.05.18-.08.07-.15.13-.22.16-.07.03-.14.05-.21.05-.2,0-.29-.16-.29-.49,0-.04,0-.07,0-.09ZM26.04,9.93h-.04c-.09.04-.16.05-.2.05-.05,0-.07-.01-.07-.04,0,0,.01-.03.03-.07.07-.11.11-.21.11-.3,0-.05,0-.1-.03-.15-.02-.04-.04-.07-.06-.07-.02,0-.05.02-.09.06-.12.13-.21.26-.28.39-.07.13-.1.25-.1.36,0,.07.01.13.04.17.03.05.06.07.11.07.04,0,.11-.04.21-.12.1-.08.21-.18.34-.31l.05-.04h0Z"/>
    <path class="cls-1" d="M27.13,9.08v-.02c.09-.24.16-.4.22-.5.03-.05.07-.09.12-.12.1-.06.19-.09.28-.09.05,0,.09.01.12.03s.04.06.04.1c0,.03-.02.09-.06.18-.06.15-.11.29-.15.42.02,0,.04,0,.06.01.08.01.13.02.15.04.02.01.04.04.04.08,0,.07-.02.13-.05.19-.03.06-.08.1-.13.13-.04.02-.11.03-.2.04-.02.05-.03.12-.05.2-.01.08-.02.18-.04.32,0,.05-.01.1-.01.14,0,.2.1.3.29.3h.02s.03,0,.03.01c0,.02-.02.05-.06.1-.04.05-.09.09-.14.13-.06.04-.12.07-.18.09-.07.02-.13.03-.18.03-.13,0-.24-.05-.32-.13s-.12-.21-.12-.36c0-.06.01-.15.03-.25.02-.1.06-.24.1-.41,0-.03.02-.06.02-.1s.01-.05.02-.06c-.05,0-.09-.01-.11-.03s-.03-.05-.03-.1c0-.08.03-.15.09-.23.06-.07.13-.12.22-.13Z"/>
    <path class="cls-1" d="M28.39,10.93c-.06,0-.11-.03-.16-.08-.05-.05-.08-.11-.1-.16-.02-.06-.03-.14-.03-.23,0-.21.04-.44.12-.71.08-.26.17-.45.26-.57.04-.05.09-.07.16-.07.07,0,.13.03.18.1.05.07.07.15.07.26,0,.16-.02.35-.07.56-.05.22-.11.44-.2.67-.03.09-.07.16-.12.19-.03.02-.07.03-.12.03h0ZM28.62,9.03c-.12,0-.18-.08-.18-.21,0-.07.02-.15.05-.24.03-.09.07-.16.12-.2.02-.02.05-.04.07-.05s.05-.02.09-.02c.06,0,.11.02.14.05.03.03.04.08.04.15,0,.09-.02.17-.05.26-.03.08-.07.15-.12.2-.05.05-.1.07-.16.07h0Z"/>
    <path class="cls-1" d="M29.89,9.91l.11-.13c.12-.13.21-.22.27-.29s.13-.11.18-.14c.05-.03.11-.04.16-.04.09,0,.15.02.19.07.04.05.05.13.05.25,0,.05,0,.12-.02.22-.02.13-.02.25-.02.36,0,.13,0,.23.02.31,0,.05.02.1.04.14.01.05.02.08.02.09,0,.02,0,.04-.02.05-.04.03-.09.06-.16.09s-.12.04-.16.04c-.07,0-.14-.02-.2-.07s-.1-.12-.14-.21c-.03-.09-.05-.19-.05-.3,0-.07,0-.16.02-.26h0c-.05.05-.1.1-.13.14-.03.04-.06.07-.09.1-.14.16-.26.31-.36.44-.04.05-.07.09-.1.13-.05.05-.1.07-.16.07-.08,0-.15-.03-.2-.09s-.08-.14-.08-.24c0-.06,0-.13.02-.22s.03-.18.06-.28c.02-.1.05-.2.08-.3.03-.1.07-.2.11-.3.06-.16.13-.28.21-.36.06-.06.13-.09.21-.09.13,0,.2.09.2.26,0,.13-.03.3-.08.54h0Z"/>
    <path class="cls-1" d="M32.33,10.39l-.05.04s-.01,0-.02.02c0,0-.02.01-.03.02-.22.17-.39.29-.52.36-.12.07-.23.1-.33.1-.1,0-.19-.04-.25-.11s-.09-.17-.09-.3c0-.16.04-.32.13-.48.09-.17.2-.32.35-.46.14-.14.3-.25.47-.34.17-.08.34-.13.5-.13s.28.03.36.08c.08.05.12.14.12.24,0,.09-.04.2-.11.34.05,0,.09.02.11.05.02.03.04.07.04.13,0,.1-.02.24-.06.41-.04.18-.09.34-.15.49-.07.19-.17.35-.3.49-.1.1-.22.2-.37.27-.15.08-.28.11-.38.11-.09,0-.17-.04-.24-.11s-.1-.15-.1-.24c0-.06.02-.12.05-.19.03-.06.07-.12.12-.16.1-.1.24-.19.43-.29.04-.02.06-.03.08-.03,0,0,.01,0,.02,0,0,0,0,.01,0,.02,0,0,0,.03-.02.05-.04.06-.07.15-.1.25-.03.1-.04.19-.04.26,0,.09.01.13.04.13.01,0,.03-.02.05-.05.02-.03.04-.07.06-.11.11-.27.18-.53.21-.76,0-.03,0-.09.01-.15ZM32.43,9.99h0s0,0,0,0c0,0-.02,0-.03,0-.02,0-.05,0-.09,0-.06,0-.1-.01-.1-.04,0-.01,0-.03.02-.05.05-.05.09-.13.12-.21.03-.09.05-.17.06-.24,0-.02,0-.03,0-.05,0,0,0,0,0-.01,0,0,0,0,0,0,0-.02-.01-.03-.04-.03-.05,0-.13.05-.23.16-.06.07-.13.15-.18.24-.06.09-.1.19-.13.28s-.05.18-.05.25.02.11.06.11.12-.06.27-.18c.06-.06.17-.14.31-.24Z"/>
    <path class="cls-1" d="M34.23,10.6l.45-1.52c.03-.12.07-.2.1-.25.02-.03.05-.05.09-.07h0s-.03,0-.03,0c-.04,0-.11.02-.23.06-.13.04-.22.07-.26.07-.03,0-.04,0-.05-.01,0,0-.01-.02-.01-.05,0-.05.01-.11.04-.17s.07-.11.11-.16.09-.08.14-.1c.11-.04.26-.08.45-.1.19-.02.39-.04.62-.04.24,0,.44.04.61.11.17.07.29.19.38.33.09.15.13.32.13.53s-.04.42-.12.63c-.08.21-.19.39-.33.53-.32.34-.75.51-1.28.51-.17,0-.33-.01-.47-.04-.14-.03-.24-.06-.28-.1-.03-.02-.04-.06-.04-.1,0-.01,0-.03,0-.05ZM35.51,8.71l-.38,1.44s0,.03-.02.07c-.02.1-.05.18-.08.23-.02.04-.05.09-.1.14.04,0,.08,0,.12,0,.11,0,.2,0,.28-.02.07-.01.14-.04.2-.08s.12-.08.18-.14c.11-.11.19-.23.24-.37s.08-.3.08-.46c0-.15-.02-.29-.07-.41s-.11-.22-.19-.29c-.08-.07-.17-.11-.28-.12Z"/>
    <path class="cls-1" d="M38.09,9.61l.02-.08c.03-.13.08-.22.15-.29.04-.04.09-.08.15-.11s.11-.04.15-.04c.08,0,.13.04.13.11,0,.04-.01.09-.03.17-.02.07-.05.16-.09.25-.04.09-.08.2-.13.31-.05.11-.11.23-.17.35-.11.23-.22.42-.33.57-.08.11-.16.21-.25.3-.08.09-.17.16-.26.23-.09.07-.18.12-.26.15-.08.03-.16.05-.23.05-.06,0-.09-.02-.09-.07,0-.04,0-.09.03-.14.02-.05.04-.11.07-.15.03-.05.08-.09.13-.12.07-.05.16-.1.29-.16-.08-.13-.13-.23-.17-.3-.04-.08-.08-.17-.13-.28-.1-.25-.16-.47-.16-.67,0-.15.02-.28.06-.37.03-.08.1-.14.19-.17.07-.03.14-.04.2-.04.08,0,.14.03.17.09s.05.21.08.44c.02.25.06.49.11.73,0,.04.02.09.03.15h0c.03-.07.07-.16.11-.27.01-.03.06-.14.13-.34.04-.12.08-.21.1-.28Z"/>
    <path class="cls-1" d="M39.64,9.91l.11-.13c.12-.13.21-.22.27-.29s.13-.11.18-.14c.05-.03.11-.04.16-.04.09,0,.15.02.19.07.04.05.05.13.05.25,0,.05,0,.12-.02.22-.02.13-.02.25-.02.36,0,.13,0,.23.02.31,0,.05.02.1.04.14.01.05.02.08.02.09,0,.02,0,.04-.02.05-.04.03-.09.06-.16.09s-.12.04-.16.04c-.07,0-.14-.02-.2-.07s-.1-.12-.14-.21c-.03-.09-.05-.19-.05-.3,0-.07,0-.16.02-.26h0c-.05.05-.1.1-.13.14-.03.04-.06.07-.09.1-.14.16-.26.31-.36.44-.04.05-.07.09-.1.13-.05.05-.1.07-.16.07-.08,0-.15-.03-.2-.09s-.08-.14-.08-.24c0-.06,0-.13.02-.22s.03-.18.06-.28c.02-.1.05-.2.08-.3.03-.1.07-.2.11-.3.06-.16.13-.28.21-.36.06-.06.13-.09.21-.09.13,0,.2.09.2.26,0,.13-.03.3-.08.54h0Z"/>
    <path class="cls-1" d="M42.1,10.36h0s0,0,0,0c-.12.14-.23.25-.32.34s-.19.15-.27.2-.16.07-.23.07c-.14,0-.26-.05-.35-.14s-.14-.22-.14-.36c0-.09.02-.2.07-.32.05-.12.11-.24.19-.36.13-.19.3-.36.5-.49.21-.14.41-.21.6-.21.16,0,.3.03.4.1.1.07.16.15.16.25,0,.07-.03.15-.08.24.07,0,.11,0,.13.02.02.01.03.05.03.1,0,0,0,.02,0,.08,0,.13-.01.24-.01.35,0,.06,0,.1,0,.13,0,.03,0,.06,0,.1,0,.04,0,.07.01.09,0,.06.03.12.05.18-.08.07-.15.13-.22.16-.07.03-.14.05-.21.05-.19,0-.29-.16-.29-.49,0-.04,0-.07,0-.09ZM42.22,9.93h-.04c-.09.04-.16.05-.2.05-.05,0-.07-.01-.07-.04,0,0,.01-.03.03-.07.07-.11.11-.21.11-.3,0-.05,0-.1-.03-.15s-.04-.07-.06-.07c-.02,0-.05.02-.09.06-.12.13-.21.26-.28.39-.07.13-.1.25-.1.36,0,.07.01.13.04.17s.06.07.11.07c.04,0,.1-.04.21-.12.1-.08.21-.18.34-.31l.05-.04h0Z"/>
    <path class="cls-1" d="M45.02,10.23l-.52.53c-.07.07-.12.11-.16.14-.04.02-.09.04-.14.04-.08,0-.14-.03-.19-.09s-.08-.13-.08-.21c0-.05,0-.11.02-.17.02-.06.05-.15.09-.27,0-.03.02-.05.03-.07,0-.02.01-.03.02-.05h0c-.12.12-.24.26-.36.4-.1.12-.18.21-.24.26-.06.06-.11.1-.16.13-.05.03-.09.04-.13.04-.08,0-.15-.03-.2-.1-.05-.06-.07-.15-.07-.26,0-.14.06-.37.18-.68.11-.28.19-.47.25-.56.09-.13.19-.2.3-.2.07,0,.12.02.17.05.05.03.07.07.07.13,0,.1-.04.24-.11.43-.03.07-.06.15-.09.24h0s.12-.13.23-.26c.18-.22.31-.37.4-.45.12-.11.23-.16.32-.16.04,0,.08.01.12.04.04.03.07.07.09.12.02.05.04.1.04.15s-.04.19-.12.42c-.02.05-.03.08-.04.11,0,.03-.02.05-.02.07h0s.03-.03.05-.04c.01-.01.03-.03.05-.04.02-.02.03-.03.05-.04.03-.03.12-.12.26-.26.09-.1.16-.17.21-.21s.1-.06.15-.06c.08,0,.14.03.18.08.04.05.06.13.06.24,0,.06-.01.17-.03.31-.02.16-.03.28-.04.37s-.01.15-.01.19c0,.03,0,.06,0,.1,0,.04,0,.09.02.13,0,.05.02.1.03.16.02.07.03.12.03.16-.01.05-.04.08-.1.12-.06.03-.12.05-.18.05-.1,0-.2-.05-.29-.14-.04-.04-.07-.09-.09-.13-.02-.04-.04-.1-.05-.16,0-.06-.01-.14-.01-.24,0-.06,0-.2.02-.4h0s-.03.04-.03.04Z"/>
    <path class="cls-1" d="M46.23,10.93c-.06,0-.11-.03-.16-.08-.05-.05-.08-.11-.1-.16-.02-.06-.03-.14-.03-.23,0-.21.04-.44.12-.71.08-.26.17-.45.26-.57.04-.05.09-.07.16-.07.07,0,.13.03.18.1.05.07.07.15.07.26,0,.16-.02.35-.07.56-.05.22-.11.44-.2.67-.03.09-.07.16-.12.19-.03.02-.07.03-.12.03h0ZM46.45,9.03c-.12,0-.18-.08-.18-.21,0-.07.02-.15.05-.24.03-.09.07-.16.12-.2.02-.02.05-.04.07-.05s.05-.02.09-.02c.06,0,.11.02.14.05.03.03.04.08.04.15,0,.09-.02.17-.05.26-.03.08-.07.15-.12.2-.05.05-.1.07-.16.07h0Z"/>
    <path class="cls-1" d="M47.96,9.08c.1,0,.17.03.23.08.06.05.09.12.09.21,0,.08-.02.15-.07.23-.04.08-.1.14-.17.19-.07.05-.13.07-.2.07-.04,0-.06-.01-.06-.04,0-.01,0-.03.02-.07.05-.08.07-.18.07-.29,0-.05,0-.08-.02-.08-.02,0-.04.02-.08.07-.03.05-.06.1-.08.16-.04.1-.07.2-.1.31-.03.11-.04.2-.04.28,0,.09.01.15.04.2.03.05.06.07.11.07.04,0,.1-.02.17-.07s.14-.1.2-.17c.03-.03.05-.05.07-.05.03,0,.05.02.05.05,0,.16-.06.3-.18.42-.08.08-.18.15-.29.2-.11.05-.21.08-.29.08-.15,0-.28-.05-.38-.14s-.15-.21-.15-.36.03-.3.1-.45c.06-.16.15-.31.26-.45.11-.14.24-.26.38-.36.1-.07.2-.1.3-.1h0Z"/>
    <path class="cls-1" d="M48.98,11c.07,0,.14-.04.2-.11s.09-.14.09-.22c0-.06-.02-.1-.06-.13-.04-.04-.13-.08-.26-.12-.2-.06-.33-.12-.39-.2-.06-.06-.09-.13-.09-.21,0-.15.05-.29.16-.44.11-.15.24-.26.41-.36s.33-.14.5-.14c.08,0,.16.02.23.06s.13.09.17.15c.04.06.06.13.06.2s-.02.15-.07.22c-.05.08-.1.14-.17.19-.07.05-.13.08-.2.08-.03,0-.07,0-.09-.02-.03-.02-.04-.03-.04-.05s0-.04.02-.08c.03-.11.04-.2.04-.28s-.02-.15-.07-.23c-.06.04-.1.08-.12.1-.05.06-.09.12-.11.19-.03.07-.04.14-.04.2,0,.05.01.08.03.11.02.03.06.05.1.07.05.02.12.04.22.06.16.04.27.08.34.11.02,0,.04.03.07.06.05.05.07.12.07.2,0,.09-.03.18-.08.26-.05.09-.14.18-.25.28-.12.1-.24.18-.36.22-.12.04-.25.07-.4.07s-.25-.03-.33-.08c-.08-.06-.12-.13-.12-.23,0-.07.03-.14.08-.21.05-.07.12-.13.2-.17.08-.04.16-.07.23-.07.06,0,.09.01.09.04,0,.01,0,.03-.02.06-.05.09-.07.17-.07.24,0,.05.02.1.06.15Z"/>
  </g>
</svg>