<?xml version="1.0" encoding="UTF-8"?>
<svg id="Layer_1" data-name="Layer 1" xmlns="http://www.w3.org/2000/svg" viewBox="0 0 100 40">
  <g>
    <polygon points="23.02 32.25 23.02 32.25 23.02 32.25 23.02 32.25"/>
    <polygon points="23.86 31.89 23.86 31.9 23.86 31.9 23.87 31.9 23.86 31.89"/>
    <path d="M20,39.84c3.1,0,6.04-.72,8.66-1.99-.02-.07-.05-.14-.08-.21l-1.65-1.48c-.21-.13-.41-.25-.61-.36-.62-.34-1.2-.54-1.75-.62,0-.06,0-.1,0-.14-.07-.31-.11-.5-.1-.55,0-.04,0-.09.01-.13.08-.27.12-.42.11-.46,0-.03-.01-.08-.04-.14-.1-.17-.18-.33-.26-.5-.04-.11-.08-.24-.11-.38-.03-.12-.06-.3-.09-.54,0,0,0,0,0,0,0-.01,0-.02,0-.03,0-.01,0-.03.02-.03.69-.32,1.24-.74,1.66-1.26l.14-.19s.02-.04.03-.06l.09-.51c.02-.13-.05-.33-.21-.59,0,0,.02,0,.02,0h0s.09-.07.14-.05c.07.01.16.03.28.04.01,0,.02,0,.03,0,.14.04.22.07.22.07.48.22.86.46,1.15.71.03.02.16.04.38.07.02,0,.05.05.08.13.03.17.06.28.09.34.01.04.06.12.15.26.09.11.2.16.32.16.06,0,.11-.03.14-.07.05-.09.07-.18.05-.26l-.28-.67c-.05-.29-.1-.52-.15-.66l-.02-.05-.33-.57-.52-.64s0,0,0-.02c-.08-.22-.15-.39-.21-.53-.02-.04-.03-.07-.03-.11,0-.03-.01-.07-.01-.1-.01-.09-.05-.17-.11-.23h0s0-.01,0-.02h-.02c-.07-.06-.14-.08-.22-.07-.07.02-.13.06-.18.11-.1.11-.2.18-.29.21l-.44.05-.34.06c-.15-.01-.26-.04-.32-.07-.08-.04-.16-.1-.23-.17-.08-.1-.12-.18-.14-.25-.08-.47-.13-.73-.14-.78l-.44-1.47c-.02-.08-.06-.16-.09-.24-.04-.09-.07-.14-.08-.15-.03-.05-.06-.09-.09-.12,0,0,0,0-.01-.01-.01-.09-.02-.17-.03-.26l-.06-.92c0-.08,0-.17,0-.25.09-1.2.13-1.82.12-1.86l-.18-.65c-.04-.13-.08-.25-.15-.37,0,0,0,0,0,0-.17-.33-.23-.72-.17-1.09l.22-1.29c.03-.14.07-.27.13-.4.11-.19.26-.33.44-.41,0-.02.07.07.21.29.06.09.19.08.23-.02,0,0,0,0,0,0,.01-.02.01-.05.01-.07l-.08-.58s0-.02,0-.02l.07-1.55c0,.08,0,.19,0,.32.06.41.09.71.09.89.03-.2.07-.27.1-.21-.04.45-.05.66-.03.65.06-.01.12-.22.17-.61,0,0,.02.07.02.21,0,.13,0,.25-.01.37,0,.02,0,.03,0,.03,0,0,0,0,0,0l.06-.56s0-.05,0-.08c0-.02,0-.05-.01-.09-.07-.19-.11-.33-.13-.42-.01-.04-.02-.1-.02-.17,0-.14,0-.29.02-.44.02-.09.03-.08.04.01,0,0,0-.03.01-.08l-.04-.45c-.03-.11-.07-.22-.13-.35,0-.02-.01-.05-.02-.08,0-.02-.02-.18-.04-.47.08.08.13.04.12-.1-.09-.29-.15-.56-.18-.8,0,0-.02-.19-.06-.55l.06-.14c-.1-.17-.15-.28-.16-.34l-.06-.62c-.04-.11-.07-.32-.1-.64l-.07-.33c-.02-.08-.06-.17-.11-.28-.08-.1-.15-.21-.21-.32-.05-.08-.12-.22-.2-.41,0,0-.02-.04-.07-.09-.06-.07-.17-.15-.3-.25-.01,0-.03-.01-.05-.02-.33-.34-.6-.51-.82-.52l-.19.02c-.19.03-.39.12-.61.25-.22.1-.35.16-.41.16-.04.01-.08.02-.1.01-.04,0-.07.02-.08.06,0,.02-.02.04-.03.06,0,.03-.07.07-.17.13-.02,0-.07,0-.13,0-.21-.01-.42.03-.61.12l-.05.02c-.05.05-.05.11.02.18,0,.03-.02.07-.06.13-.12.02-.19.09-.21.21,0,0-.01.02-.02.02-.03,0-.05,0-.07,0-.03,0-.05.03-.06.05l-.06.16c-.08.05-.14.11-.17.17-.05.07-.05.15,0,.26.35.31.52.52.52.63,0,.21.03.59.1,1.14,0,.04,0,.16-.03.37-.03.17-.08.33-.16.5-.21.29-.55.71-1.01,1.23,0,.02-.02.04-.03.05-.12.08-.23.04-.33-.11,0-.02-.02-.05-.03-.07-.02-.92-.04-1.81-.05-2.68,0-.11-.03-.24-.06-.4-.25-.68-.39-1.12-.42-1.33,0-.04.02-.08.07-.08h0c.13-.02.38.05.77.2.02,0,.04.01.06,0h0c.06,0,.11-.04.13-.09l.06-.15c.02-.05.06-.1.11-.13l.4-.25s.07-.06.08-.11c.02-.1.04-.17.05-.21,0-.03.03-.05.06-.05.06,0,.11-.02.15-.03.05-.01.09-.06.1-.11.05-.23.1-.44.14-.61.02-.01.03-.02.05-.03,0-.06,0-.12.01-.18.06-.21.13-.37.19-.49.12-.2.19-.31.22-.33.07-.04.14-.05.22-.03.03,0,.07-.01.07-.05.02-.15.05-.25.09-.32,0,0,0,0,0,0l.04-.05s0,0,.01-.01l.22-.16s.03-.05.01-.07c-.03-.05-.1-.12-.21-.21-.02-.13-.19-.42-.51-.88,0-.01-.07-.08-.22-.2-.7-.47-1.27-.72-1.72-.73h-.03c-.08.01-.22.06-.41.15l-.32.44c-.33.18-.51.3-.53.37-.04.06-.07.21-.09.44-.14.16-.21.25-.22.28-.07.35-.1.57-.08.65-.15.36-.22.6-.22.73-.03.05-.27.2-.73.46h0s0,0,0,0c.02-.06-.35.3-1.1,1.07-.35.37-.6.68-.76.93-.16.33-.37.85-.63,1.58-.24.66-.39,1.31-.43,1.96l.08,1.71v2.54c-.01.23-.03.69-.04,1.4,0,0,0,0,0,0-.05.32-.08.65-.1.98,0,0,0,0,0,0,0,.11.03.25.07.42,0,0,0,0,0,.01.32.5.48.77.47.8.16,1.13.26,1.83.31,2.1,0,0,0,0,0,0,.35,1.07.56,1.86.62,2.38l.07,1.01c-.07.77-.07,1.38-.02,1.83,0,.07.01.15,0,.22-.05.53-.08.81-.07.83l.13,3s0,.04,0,.07c-.01.49-.02.76-.01.82.06.75.12,1.26.16,1.52,0,.05.01.1.01.16v1.19s-1.31-.26-1.31-.26c-.3-.05-.6-.05-.91-.03-.35.06-.65.16-.91.28-.22.07-.46.27-.74.59l-.03,1.01c.55.27,1.11.52,1.69.75,2.21.86,4.62,1.33,7.13,1.33ZM16.35,26.79s0-.05,0-.08c0,0,0,0,0,0,0,0,0-.01,0-.02,0-.02,0-.03,0-.05,0,0,0,0,0,0,0-.02,0-.05,0-.07v-.06s-.01-.08-.01-.11c0-.02,0-.03,0-.03,0,0,0,0,0,0h0s0,0,0,0c0,0,0,0,0,0,0,0,0,0,0,0,0,0,0,0,0,0,0,0,0,0,0,.01,0,0,0,.02,0,.03,0,0,0,0,0,0l.04.81h0s0-.08-.01-.11c0-.04,0-.07,0-.09,0,0,0,0,0,0,0-.06,0-.12,0-.17v-.08ZM16.66,31.82v-.16s0,0,0,0c0-.06-.01-.12-.02-.19-.06-.5-.12-.94-.17-1.3-.05-.38-.08-.63-.1-.74,0,0,0,0,0,0,0-.04,0-.08,0-.12,0-.02,0-.04,0-.07,0-.08,0-.18,0-.31h0s0,0,0,0c0-.04,0-.11.01-.22,0-.1.01-.22.02-.34h0s0-.81,0-.81v-.26s-.01,0-.01,0h0s0,0,0,0h0s.05.41.05.41c.01.4.04.77.07,1.13l.04.31s0,.04,0,.06c.01.08.02.14.03.2.01.07.03.15.04.24,0,.01,0,.03,0,.04,0,0,0,0,0,0,0,0,0,.01,0,.02,0,0,0,0,0,.01,0,0,0,0,0,.01,0,0,0,.02,0,.02,0,0,0,0,0,0,0,0,0,0,0,0,0,0,0,0,0,0,0,0,0,0,0,0,0,0,0,0,0,0,0,0,0,0,0,0,0,0,0,0,0,0,0,.01,0,.02,0,.03,0,.01,0,.02,0,.03,0,.01,0,.02,0,.01,0,0,0,0,0,0,0,0,0,0,0,0,0,0,0,0,0,.01,0,0,0,0,0,0,0,0,0,0,0,.01,0,0,0,0,0,0,0,0,0,.01,0,.02,0,0,0,0,0,0,0,.03,0,.05,0,.07,0,.02,0,.04,0,.05,0,.02,0,.07,0,.13,0,.07,0,.16-.01.28,0,0,0,0,0,0,0,.13.01.26.01.39,0,0,0,.02,0,.03,0,.04,0,.07,0,.11,0,0,0,0,0,0,0,0,0,0,0,0,0,.08.01.17.01.25,0,.01,0,.03,0,.04,0,.08,0,.15,0,.23v.32ZM16.72,32.59c-.02-.16-.03-.34-.05-.53,0,0,0,0,0,0,0-.01,0-.02,0-.03,0-.01,0-.02,0-.03,0-.04,0-.08,0-.11,0-.01,0-.03,0-.04h0s0,0,0,0v.05s.13.78.13.78c0,.02,0,.04,0,.06,0,0,0,0,0,.01,0,.02,0,.04,0,.06,0,0,0,0,0,.01,0,0,0,.02,0,.02,0,.03,0,.07,0,.11,0,0,0,0,0,0,0,.04,0,.09,0,.14h0s0,.04,0,.06c0,.02,0,.03,0,.04,0,.04,0,.08-.01.12,0,0,0-.01,0-.02-.02-.13-.03-.24-.04-.34-.01-.11-.03-.23-.04-.35ZM16.96,34.93v-.03s-.02-.08-.03-.12c0-.03-.01-.08-.02-.14,0-.05-.02-.1-.03-.15-.02-.15-.05-.27-.07-.37,0-.02,0-.05-.01-.07,0-.06-.02-.13-.03-.19,0-.03,0-.06,0-.09,0-.04,0-.08,0-.1.01-.12.02-.23.03-.35h0s0,0,0,0h0s0,0,0,0h0c0,.08.04.28.09.6.02.15.05.31.08.5.01.07.02.14.03.21,0,.05.01.11.02.19.01.13.03.32.06.57,0,.04.01.09.02.14,0,.03,0,.06.01.08l-.16-.67ZM17.29,21.94s0,0,0,0c-.02,0-.03,0-.04.01-.01,0-.02,0-.03,0-.03,0-.05,0-.07-.02,0,0-.02,0-.02-.01-.02-.01-.03-.02-.04-.04,0,0-.01-.02-.02-.02-.02.01-.04.02-.06.03,0,0,0,0,0,0-.02,0-.03,0-.05.01-.02,0-.03,0-.04,0,0,0-.01,0-.02,0-.02,0-.03,0-.04,0,0,0,0,0-.01,0,0,0,0,0,0,0-.03,0-.06,0-.1-.02-.06-.02-.1-.03-.14-.05-.01,0-.02-.01-.03-.02,0,0-.01,0-.02,0-.05-.02-.1-.05-.15-.08,0,0,0,0,.02-.01,0,0,.01,0,.02,0l.12-.03.12-.03s0,0,0,0c.02,0,.04,0,.06,0h.01s.03,0,.04,0c.01,0,.03,0,.04,0,.03,0,.05.02.07.03.03.02.06.04.08.05,0,0,.01.01.02.01,0,0,0,0,0,0,.01.01.02.02.03.04.03,0,.04,0,.07.01.01,0,.03-.01.05-.02h.01s.03-.02.03-.02c.02,0,.03,0,.04,0,0,0,0,0,0,0,0,0,0,0,.01,0,.02,0,.06,0,.11,0,0,0,.02,0,.03,0,.02,0,.05,0,.09,0,.02,0,.04,0,.06,0h0s0,0,0,0c.01,0,.02,0,.03,0,0,0,0,0,.01,0,0,0,.01,0,.02,0,.01,0,.02,0,.03-.01,0,0,0,0,.01,0h0s0,0,0,0c-.08.05-.2.11-.36.17ZM23.56,32.07c-.09.06-.16.1-.18.11-.06.03-.12.05-.17.06-.08.01-.14.02-.17.02,0,0,0,0,0,0-.04.01-.08.02-.13.03-.03,0-.07,0-.12,0-.03,0-.05,0-.07-.01-.02-.02-.02-.03-.01-.04.02,0,.05-.01.09-.01.04,0,.06,0,.08,0,.04,0,.09.01.15.02,0,0,0,0,0,0,0,0,0,0,0,0h0l.29-.12c.1-.02.18-.04.25-.06h0ZM24.03,31.78s-.05.06-.08.09c0,0,0,0,0,0,0,0-.01,0-.02.01,0,0,0,0-.01,0,0,0-.02.01-.03.02,0,0,0,0,0,0,0,0,0,0,0,0,0,0,0,0,0,0,0,0,0,0,0,0,0,0,0,0,0,0,0,0,0,0,0,0,0,0,0,0,0,0,0,0,0,0,0,0,0,0,0,0,0,0,0,0,0,0-.01-.01,0,0,0,0,0-.01,0,0,0,0,0,0,0,0,0,0,0,0,0,0,0,0,0,0,0,0,0,0,0,.01,0,0,0,0,.01.01,0,0,0,0,0,0,0,0-.02-.02-.03-.04,0,0,0,0,0,0,0,0,0,0,.01-.01l.06-.06s.07-.08.11-.12l.04-.05s.02-.03.03-.04c0,0,0,0,0,0,.02-.03.04-.07.07-.11h0l-.12.31ZM24.5,29.2h0s.05.04.07.06c.02.01.05.04.1.09l-.18-.14s0,0,0,0ZM23.17,28.65h0s.11.02.19.04c.14.04.25.07.33.1.2.04.31.06.32.08.05.02.12.06.22.13.03.02.12.09.25.2-.07-.04-.13-.07-.2-.09-.34-.1-.5-.15-.5-.15,0,0-.02,0-.02,0l-.35-.18s-.09-.03-.13-.05l-.11-.05h-.01s0,0,0,0ZM22.84,28.51s-.02-.01-.03-.02l-.09-.05-.12-.07s0,0,0,0h.01c.19.11.38.2.54.27-.11-.04-.21-.08-.32-.13ZM21.81,19.79l.63-.51.03-.04c.12-.16.21-.33.26-.52.02-.1.02-.17.02-.21-.02-.1-.05-.22-.09-.35,0-.01,0-.04,0-.09,0-.04.03-.1.08-.2,0-.03,0-.06,0-.08,0-.02-.01-.05-.02-.09-.07-.14-.14-.28-.2-.42-.02-.05-.05-.12-.09-.23-.05-.2-.07-.34-.05-.39l.18.48c.14.22.23.43.26.62,0,.01,0,.14-.01.38.03.17.05.27.05.31,0,.11-.02.23-.05.35-.04.13-.15.31-.34.52-.07.08-.25.2-.53.39-.14.19-.24.3-.3.34.07-.13.13-.22.17-.26ZM22.37,28.22h.01c.07.06.14.1.2.14-.03-.02-.06-.03-.08-.04,0,0-.01,0-.02,0,0,0-.02,0-.02-.01,0,0-.03-.02-.05-.04-.01-.01-.03-.02-.05-.04,0,0,0,0,0,0ZM22.35,28.21c-.12-.08-.18-.12-.19-.12-.04-.03-.13-.11-.26-.23-.03-.02-.08-.05-.17-.1,0,0,0,0,0,0h0s.07.02.13.04c.03.02.07.04.11.06.22.21.35.33.38.36ZM21.4,20.29c.09-.08.16-.16.24-.23h0c-.05.09-.1.17-.16.24h-.01s-.17.15-.17.15c.03-.04.06-.1.1-.16ZM21.3,20.45h0s0,0,0,0c-.02.03-.04.06-.05.08-.01.02-.03.04-.05.07l-.33.29s-.02,0-.03,0c-.01,0-.02-.02,0-.03,0,0,.02-.03.04-.05l.03-.03c.13-.11.26-.22.4-.33ZM19.79,15.51s.04-.02.09-.03c.12-.01.19-.02.21-.03.04,0,.09-.04.18-.09,0,0,.07-.05.19-.15.12-.08.19-.13.2-.14l.25-.29-.2.3s-.06.07-.08.09l-.08.05c-.08.03-.12.05-.13.06-.01,0-.06.05-.15.15,0,0-.03.02-.08.05-.09.04-.16.07-.21.08-.05,0-.09,0-.13,0-.05,0-.07-.01-.07-.02ZM18.12,23.23c.14-.54.24-.98.28-1.3,0,0,0,0,0,0,.05-.64.08-1.25.09-1.83,0,0,0,0,0-.01.01-.04.02-.08.04-.12,0,0,.02-.16.05-.44,0,0,0,0,0,0,0,0,0,0,0,0,.01-.04.07-.04.08,0,.08.36.19.85.34,1.47l.22,2.18c.02.15.01.57-.01,1.27,0,.2-.06.69-.16,1.45,0,.2,0,.42,0,.65.08.64.2,1.23.35,1.77.36.84.79,2.07,1.31,3.71.08.1.23.09.46-.03.11-.06.25-.03.33.08h0c.05.07.13.11.21.11.24-.01.44.02.6.08.04.01.07.04.1.07.04.04.08.1.14.18.04.24.1.61.2,1.11.01.08.02.18.02.3,0,.12-.04.31-.12.58,0,.05,0,.11,0,.19.02.17.08.4.2.69,0,0,0,0,0,.01-2.03.52-3.51.87-4.43,1.04l.19-.44c.04-.12.07-.32.09-.62,0-.03,0-.06,0-.09,0-.1-.02-.2-.05-.29-.09-.29-.18-.62-.28-1,0-.03-.01-.06-.02-.09l-.14-.91s0-.06,0-.1c0-.05,0-.08,0-.11,0-.31,0-.54,0-.68,0-.04,0-.08,0-.11-.04-.27-.09-.84-.17-1.7,0-.02,0-.05,0-.07,0-.28-.03-.77-.06-1.48,0-.09,0-.15,0-.19.03-.36.05-.57.05-.65l-.04-1.84v-1.01c.01-.14.03-.35.05-.62,0,0,0,0,0,0v-.12s0,0,0,0c.05-.49.07-.83.08-1.01,0,0,0,0,0,0ZM18.03,21.25s.02-.03.03-.03l-.02.03c-.03.05-.06.1-.09.14-.03.05-.06.09-.08.12l-.13.17s0,0,0,0l.13-.2s0,0,0,0c.01-.02.02-.03.04-.05,0,0,0,0,0-.01.01-.02.02-.03.03-.05.01-.02.03-.04.04-.06.01-.02.03-.04.04-.05ZM17.53,8.22h0s0,0,0,0h0s0,0,0,0h0s.04.05.06.07c.02.03.04.06.07.1,0,0,0,0,0,0,0,0,0,0,0,0,0,.01.02.03.03.05,0,0,0,0,0,.01,0,.01.01.03.02.04,0,0,0,0,0,.01,0,.01.01.03.02.04,0,0,0,0,0,.01,0,.02.02.04.03.06.02.04.03.07.05.11,0,.01,0,.02.01.03.01.03.02.05.03.08.01.03.02.07.03.1,0,.01,0,.02.01.03,0,.01,0,.02.01.03.01.04.03.09.04.13,0,0,0,0,0,0l-.29-.62-.14-.29h0ZM17.02,14.85s.03.09.05.14c.03.1.08.19.13.29,0,0,0,.02.01.03l.07.11c.09.18.14.29.17.33.02.02.09.11.23.26l.14.21s.05.11.07.23c.02.09.02.14,0,.15l-.17-.15c0,.11-.05.11-.14.02-.08-.06-.19-.24-.34-.53-.06-.12-.12-.25-.18-.38,0-.02,0-.03,0-.05-.01-.03-.02-.06-.03-.08l-.09-.36c-.09-.25-.16-.49-.22-.73l-.08-.22s0-.07.02-.06h0s.1.1.18.28c.06.17.11.32.15.47,0,0,0,.02.01.03ZM16.53,7.86l.04-.02s.01,0,.02,0c.01,0,.02,0,.04-.01,0,0,0,0,0,0h.3s0,0,0,0l-.38.09h0s-.05.01-.08.02c.01-.01.04-.03.07-.06ZM16.27,8.04s.01-.01.02-.02c.02-.02.04-.04.07-.05.04-.02.08-.04.11-.05h0s-.11.1-.26.22l.07-.1ZM15.97,8.34h.01c.04-.05.09-.1.16-.16.02-.02.03-.03.04-.04h0,0s-.05.08-.07.1c-.01.02-.03.04-.05.05l-.02.02s-.03.02-.04.03c-.01,0-.02.01-.03.01,0,0,0,0,0,0,0,0,0,0,0,0ZM15.74,21.71h0s0,0,0,0h0s0,0,0,0h0s0,0,0,0c.01.04.02.08.03.11.01.04.02.08.03.12.02.08.03.15.05.23,0,.04.01.08.02.12,0,0,0,0,0,0,0,.03,0,.07.01.1,0,0,0,.02,0,.03,0,.04,0,.07,0,.11h0s0,.02,0,.04c0,.05,0,.13,0,.25,0,0,0,0,0,0l-.15-1.11h0ZM15.04,21.42s-.04-.02-.06-.03c0,0,0,0,0,0-.02,0-.03-.02-.05-.02-.03-.02-.06-.03-.08-.05-.02-.01-.04-.02-.05-.03-.01-.01-.03-.02-.05-.04-.02-.01-.04-.03-.06-.06,0,0,0,0,0,0l-.16-.15s-.05-.04-.07-.06h0s0,0,0,0l.07.05h.01s.19.14.19.14l.16.11s0,0,0,0l.16.14s0,0,0,0c0,0,0,0,0,0,0,0,0,0,0,0Z"/>
    <polygon points="23.87 31.91 23.87 31.91 23.87 31.9 23.87 31.91"/>
    <path d="M23.84,31.86s0,0,0,0c0,0,0,0,0,0Z"/>
    <polygon points="23.87 31.91 23.87 31.91 23.87 31.91 23.87 31.91"/>
    <path d="M23.85,31.89s0,0-.01-.01c0,0,0,0,.01.01Z"/>
    <path d="M23.87,31.91s0,0,0,0h0Z"/>
    <path d="M38.43,12.22c-1.01-2.38-2.45-4.52-4.29-6.36-1.84-1.84-3.98-3.28-6.36-4.29-2.47-1.04-5.08-1.57-7.78-1.57s-5.32.53-7.78,1.57c-2.38,1.01-4.52,2.45-6.36,4.29-1.84,1.84-3.28,3.98-4.29,6.36-1.04,2.47-1.57,5.08-1.57,7.78s.53,5.32,1.57,7.78c1.01,2.38,2.45,4.52,4.29,6.36.11.11.22.22.33.32.06.06.12.12.19.18.15.14.3.27.45.4.77.67,1.58,1.28,2.43,1.83.2.13.4.25.61.37.09.05.17.1.26.15.27.15.54.3.81.44.08.04.16.08.24.12.34.17.69.33,1.04.48.21.09.42.17.64.26,2.28.87,4.68,1.32,7.15,1.32,2.7,0,5.32-.53,7.78-1.57.31-.13.62-.27.92-.42.79-.38,1.55-.81,2.28-1.29.27-.18.54-.36.8-.56.03-.02.07-.05.1-.07,0,0,.01,0,.02-.01.2-.15.39-.3.58-.45.2-.16.41-.33.6-.5.25-.22.5-.44.74-.68.1-.1.21-.2.31-.3.24-.24.48-.49.7-.74,1.5-1.66,2.71-3.55,3.58-5.62,1.04-2.47,1.57-5.08,1.57-7.78s-.53-5.32-1.57-7.78ZM34.64,33.37c-.32.35-.64.68-.98,1-.25.23-.5.46-.75.68-.2.17-.41.34-.61.51-.2.15-.39.31-.59.45-.01,0-.03.02-.04.03-.03.03-.07.05-.1.08-.25.18-.5.35-.75.52-.68.45-1.4.85-2.14,1.21-2.62,1.28-5.56,1.99-8.66,1.99-2.51,0-4.92-.47-7.13-1.33-.58-.22-1.14-.47-1.69-.75-.06-.03-.12-.06-.18-.09-.2-.1-.4-.21-.6-.32-.18-.1-.35-.2-.52-.3-.18-.11-.35-.21-.53-.32-.79-.5-1.53-1.06-2.24-1.66-.11-.09-.21-.18-.31-.27-.14-.12-.28-.25-.41-.38C2.56,30.8.16,25.68.16,20,.16,9.06,9.06.16,20,.16s19.84,8.9,19.84,19.84c0,5.15-1.97,9.84-5.2,13.37Z"/>
  </g>
  <g>
    <path d="M43.95,21.21l.9-3.05c.07-.24.13-.4.2-.5.04-.06.1-.1.17-.14v-.02h-.05c-.07,0-.23.04-.46.13-.26.09-.43.13-.53.13-.05,0-.09,0-.1-.03-.02-.02-.03-.05-.03-.09,0-.1.03-.21.09-.33s.13-.23.22-.32c.09-.1.19-.16.28-.21.22-.09.52-.15.9-.2.38-.05.79-.07,1.23-.07.48,0,.88.07,1.21.22.33.15.59.37.76.66.17.29.26.65.26,1.06s-.08.84-.25,1.26c-.17.42-.39.78-.66,1.06-.64.68-1.5,1.02-2.57,1.02-.34,0-.66-.03-.94-.08-.28-.06-.47-.12-.56-.21-.06-.05-.09-.11-.09-.2,0-.02,0-.06.02-.11ZM46.52,17.43l-.76,2.89s-.01.06-.03.14c-.05.2-.1.35-.16.46-.04.08-.11.18-.19.29.07,0,.16,0,.25,0,.22,0,.4-.01.55-.04.15-.03.28-.08.41-.15s.25-.16.36-.27c.21-.21.37-.46.48-.75s.17-.59.17-.92c0-.3-.05-.58-.14-.83s-.22-.44-.38-.59c-.16-.14-.35-.22-.56-.23Z"/>
    <path d="M51.85,20.72v.02l-.02-.02c-.24.28-.45.5-.65.68s-.38.31-.54.4-.32.13-.46.13c-.28,0-.52-.09-.7-.28s-.28-.43-.28-.72c0-.18.05-.39.14-.64.09-.25.22-.49.38-.72.27-.38.6-.71,1-.98.41-.28.82-.41,1.2-.41.32,0,.59.07.8.2.21.13.31.3.31.5,0,.15-.05.31-.16.47.14,0,.22.01.26.04.03.03.05.1.05.2,0-.01,0,.04-.02.16-.01.25-.02.48-.02.7,0,.11,0,.2,0,.26,0,.06,0,.13.01.2,0,.08.02.14.02.18.02.12.05.24.1.35-.15.15-.3.26-.44.33-.14.07-.28.1-.43.1-.39,0-.58-.33-.58-.98,0-.08,0-.14,0-.18ZM52.08,19.85l-.07.02c-.18.05-.31.08-.4.08-.1,0-.15-.03-.15-.08,0-.02.02-.06.06-.14.14-.22.21-.42.21-.61,0-.11-.02-.21-.06-.3-.04-.09-.08-.13-.13-.13-.04,0-.1.04-.19.13-.24.26-.42.52-.56.79-.14.27-.21.51-.21.72,0,.14.03.25.09.35.06.09.13.14.21.14.07,0,.21-.08.41-.23.2-.16.43-.36.68-.62l.1-.08-.02-.02Z"/>
    <path d="M54.26,18.16v-.05c.18-.47.33-.8.45-.99.06-.09.14-.17.24-.24.2-.12.38-.19.55-.19.1,0,.18.02.23.07s.08.11.08.2c0,.06-.04.18-.12.36-.13.3-.23.58-.29.84.04,0,.08.01.13.02.15.02.25.05.3.08.05.03.07.08.07.16,0,.13-.03.26-.1.37-.07.11-.16.2-.27.25-.08.04-.22.06-.41.08-.03.1-.07.23-.11.41-.02.15-.05.36-.07.63-.02.1-.02.19-.02.28,0,.4.19.6.58.6h.03s.07,0,.07.02c0,.04-.04.11-.13.2-.09.1-.18.18-.29.25-.11.08-.23.14-.36.18-.13.05-.25.07-.36.07-.27,0-.48-.09-.65-.27s-.25-.42-.25-.71c0-.13.02-.29.07-.5.04-.21.11-.48.21-.82.02-.06.03-.12.05-.19s.03-.11.03-.12c-.1,0-.17-.02-.22-.06s-.06-.11-.06-.2c0-.16.06-.31.18-.45.12-.14.27-.23.43-.27Z"/>
    <path d="M56.78,21.87c-.11,0-.22-.06-.31-.16-.09-.1-.16-.21-.2-.33-.04-.12-.06-.27-.06-.46,0-.42.08-.89.23-1.41.16-.52.33-.91.53-1.14.08-.1.19-.15.33-.15.15,0,.27.07.35.2.09.13.14.31.14.53,0,.32-.05.7-.14,1.13-.09.43-.22.88-.39,1.35-.07.19-.15.31-.24.38-.07.04-.14.06-.23.06h0ZM57.23,18.05c-.24,0-.36-.15-.36-.43,0-.14.03-.3.1-.48.07-.18.15-.32.24-.41.05-.05.09-.08.14-.1s.11-.03.18-.03c.13,0,.22.03.28.09.06.06.09.17.09.31,0,.18-.03.35-.09.51-.06.16-.15.29-.25.39-.1.1-.21.15-.32.15h-.01Z"/>
    <path d="M59.79,19.83l.23-.27c.23-.26.41-.45.55-.57s.26-.22.36-.27c.11-.06.22-.08.33-.08.18,0,.31.05.38.14.07.1.11.26.11.5,0,.1-.01.24-.03.44-.03.26-.05.5-.05.72,0,.25.01.46.04.62.02.1.04.19.08.29.03.09.04.15.04.19,0,.04-.02.07-.05.09-.08.07-.18.13-.31.18s-.24.08-.33.08c-.14,0-.28-.05-.39-.15s-.21-.24-.27-.41c-.06-.17-.1-.37-.1-.59,0-.15.02-.32.05-.52l-.02-.02c-.11.12-.2.22-.26.29-.07.07-.13.14-.19.2-.28.32-.52.62-.72.88-.08.1-.15.19-.21.27-.09.09-.2.14-.32.14-.16,0-.29-.06-.4-.18s-.15-.28-.15-.47c0-.12.01-.26.04-.44s.07-.36.11-.55c.05-.2.1-.4.17-.61.06-.21.13-.41.21-.59.12-.31.26-.55.42-.73.11-.11.25-.17.41-.17.26,0,.4.17.4.51,0,.25-.05.61-.16,1.08v.02Z"/>
    <path d="M64.66,20.79l-.1.08s-.02.02-.04.03c-.02.01-.04.03-.06.05-.44.34-.78.58-1.03.72-.25.14-.47.21-.65.21-.2,0-.37-.07-.5-.22s-.19-.35-.19-.6c0-.31.09-.63.26-.97.18-.33.41-.64.7-.92.29-.28.61-.5.95-.67.34-.17.68-.25,1-.25s.56.05.72.16c.17.11.25.27.25.49,0,.18-.07.41-.22.68.1,0,.18.04.23.1.05.06.07.15.07.27,0,.2-.04.47-.12.83-.08.35-.18.68-.3.98-.14.38-.34.71-.61.98-.2.21-.45.39-.74.54-.3.15-.55.23-.76.23-.18,0-.34-.07-.47-.21s-.21-.3-.21-.48c0-.12.03-.24.09-.37.06-.13.14-.24.24-.33.2-.2.49-.39.87-.57.07-.03.13-.05.16-.05.02,0,.03,0,.04.02.01.01.02.03.02.04,0,.02-.01.05-.05.1-.08.13-.14.29-.2.5-.06.2-.09.37-.09.52,0,.17.03.26.08.26.03,0,.06-.03.1-.09.04-.06.08-.13.11-.21.22-.55.35-1.05.41-1.52,0-.07.02-.17.02-.31ZM64.85,19.98v.02-.02s-.05,0-.08,0c-.05,0-.11,0-.18,0-.13,0-.19-.02-.19-.07,0-.03.02-.06.05-.09.1-.11.18-.25.25-.43.07-.18.11-.34.12-.48,0-.04,0-.07,0-.09,0-.01,0-.02,0-.03,0,0,0-.01,0-.02,0-.04-.02-.05-.07-.05-.1,0-.25.11-.45.32-.13.14-.25.3-.36.49-.11.19-.2.37-.27.56s-.09.36-.09.5.04.22.11.22.25-.12.54-.36c.13-.11.34-.27.63-.48Z"/>
    <path d="M68.46,21.21l.9-3.05c.07-.24.13-.4.2-.5.04-.06.1-.1.17-.14v-.02h-.05c-.07,0-.23.04-.46.13-.26.09-.43.13-.53.13-.05,0-.09,0-.1-.03-.02-.02-.03-.05-.03-.09,0-.1.03-.21.09-.33s.13-.23.22-.32.19-.16.28-.21c.22-.09.52-.15.9-.2.38-.05.79-.07,1.23-.07.48,0,.88.07,1.21.22.33.15.59.37.76.66.17.29.26.65.26,1.06s-.08.84-.25,1.26c-.17.42-.38.78-.66,1.06-.64.68-1.5,1.02-2.57,1.02-.34,0-.66-.03-.94-.08-.29-.06-.47-.12-.56-.21-.06-.05-.09-.11-.09-.2,0-.02,0-.06.01-.11ZM71.02,17.43l-.76,2.89s-.01.06-.03.14c-.05.2-.1.35-.16.46-.04.08-.1.18-.19.29.07,0,.16,0,.25,0,.22,0,.4-.01.55-.04.15-.03.28-.08.41-.15s.24-.16.36-.27c.21-.21.37-.46.48-.75s.17-.59.17-.92c0-.3-.05-.58-.14-.83s-.22-.44-.38-.59c-.16-.14-.35-.22-.56-.23Z"/>
    <path d="M76.19,19.22l.05-.16c.07-.25.17-.45.3-.58.09-.09.19-.16.3-.21s.21-.08.3-.08c.17,0,.25.07.25.21,0,.07-.02.18-.07.33-.05.15-.11.32-.18.51-.07.19-.16.4-.26.62-.1.23-.21.46-.33.69-.22.45-.44.83-.67,1.14-.16.22-.33.42-.49.59-.17.17-.34.33-.53.46-.18.14-.36.24-.52.31-.16.07-.31.1-.45.1-.11,0-.17-.05-.17-.15,0-.08.02-.17.05-.28.03-.11.08-.21.15-.31.07-.09.15-.17.26-.24.13-.09.33-.19.58-.31-.15-.26-.27-.46-.35-.61-.08-.15-.16-.34-.26-.56-.21-.49-.31-.94-.31-1.34,0-.31.04-.56.11-.75.07-.16.19-.28.38-.35.15-.06.28-.09.4-.09.16,0,.27.06.33.19s.11.42.15.88c.05.49.12.98.22,1.46.02.07.04.17.06.3h.02c.07-.15.14-.33.22-.54.03-.06.11-.29.27-.67.09-.23.15-.42.19-.57Z"/>
    <path d="M79.27,19.83l.23-.27c.23-.26.41-.45.55-.57s.26-.22.36-.27c.11-.06.22-.08.33-.08.18,0,.31.05.38.14.07.1.11.26.11.5,0,.1-.01.24-.03.44-.03.26-.05.5-.05.72,0,.25.01.46.04.62.02.1.04.19.08.29.03.09.04.15.04.19,0,.04-.02.07-.05.09-.08.07-.18.13-.31.18s-.24.08-.33.08c-.14,0-.28-.05-.39-.15s-.21-.24-.27-.41c-.06-.17-.1-.37-.1-.59,0-.15.02-.32.05-.52l-.02-.02c-.11.12-.2.22-.26.29-.07.07-.13.14-.19.2-.28.32-.52.62-.72.88-.08.1-.15.19-.21.27-.09.09-.2.14-.32.14-.16,0-.29-.06-.4-.18s-.15-.28-.15-.47c0-.12.01-.26.04-.44s.07-.36.11-.55c.05-.2.1-.4.17-.61.06-.21.13-.41.21-.59.12-.31.26-.55.42-.73.11-.11.25-.17.41-.17.26,0,.4.17.4.51,0,.25-.05.61-.16,1.08v.02Z"/>
    <path d="M84.21,20.72v.02-.02c-.25.28-.47.5-.66.68s-.38.31-.54.4-.32.13-.46.13c-.28,0-.52-.09-.7-.28s-.28-.43-.28-.72c0-.18.05-.39.14-.64.09-.25.22-.49.38-.72.27-.38.6-.71,1-.98.42-.28.82-.41,1.2-.41.32,0,.59.07.8.2.21.13.31.3.31.5,0,.15-.05.31-.16.47.14,0,.22.01.26.04.03.03.05.1.05.2,0-.01,0,.04-.02.16-.02.25-.02.48-.02.7,0,.11,0,.2,0,.26,0,.06,0,.13.02.2,0,.08.01.14.02.18.02.12.05.24.1.35-.15.15-.3.26-.44.33-.14.07-.28.1-.43.1-.39,0-.58-.33-.58-.98,0-.08,0-.14,0-.18ZM84.44,19.85l-.07.02c-.18.05-.31.08-.39.08-.1,0-.15-.03-.15-.08,0-.02.02-.06.06-.14.14-.22.21-.42.21-.61,0-.11-.02-.21-.06-.3s-.08-.13-.13-.13c-.04,0-.1.04-.19.13-.24.26-.42.52-.56.79-.14.27-.21.51-.21.72,0,.14.03.25.09.35s.13.14.21.14c.07,0,.21-.08.41-.23.2-.16.43-.36.68-.62l.1-.08v-.02Z"/>
    <path d="M90.04,20.45l-1.04,1.06c-.13.13-.24.23-.33.28-.08.05-.17.07-.27.07-.15,0-.28-.06-.39-.17s-.16-.26-.16-.42c0-.1.02-.22.05-.34.03-.12.09-.31.19-.55.02-.05.03-.09.05-.13.02-.04.03-.07.04-.09v-.02c-.26.26-.5.53-.74.82-.2.24-.35.41-.47.53-.12.12-.22.2-.31.26-.09.06-.18.09-.25.09-.16,0-.29-.06-.39-.19-.1-.13-.14-.3-.14-.53,0-.28.12-.74.36-1.36.22-.56.39-.93.5-1.12.17-.26.37-.4.6-.4.14,0,.25.03.34.1.09.06.14.15.14.25,0,.19-.07.48-.22.87-.06.14-.11.31-.17.49v.02c.11-.1.26-.28.47-.54.36-.44.63-.74.81-.9.24-.22.45-.33.65-.33.09,0,.17.03.25.09.08.06.14.14.19.23.05.1.07.2.07.31s-.08.39-.23.84c-.03.09-.06.17-.08.22-.02.05-.03.1-.05.14l.02.02s.07-.07.09-.09c.03-.03.06-.06.09-.09.03-.03.07-.06.1-.09.07-.07.24-.24.52-.52.18-.2.32-.34.43-.42s.2-.11.3-.11c.16,0,.28.05.36.16.08.11.12.27.12.48,0,.13-.02.33-.06.61-.03.31-.06.56-.07.74s-.02.3-.02.37c0,.05,0,.12,0,.2,0,.08.02.17.03.26.02.09.04.2.06.31.03.14.05.25.06.33-.02.09-.09.17-.2.23-.11.06-.23.09-.37.09-.21,0-.4-.09-.58-.28-.08-.09-.14-.17-.19-.26-.04-.09-.08-.19-.09-.31-.02-.12-.03-.28-.03-.48,0-.13.02-.4.05-.8l-.02-.02-.07.1Z"/>
    <path d="M92.45,21.87c-.11,0-.22-.06-.31-.16-.09-.1-.16-.21-.2-.33-.04-.12-.06-.27-.06-.46,0-.42.08-.89.23-1.41.16-.52.33-.91.53-1.14.08-.1.19-.15.33-.15.15,0,.27.07.35.2.09.13.14.31.14.53,0,.32-.05.7-.14,1.13-.09.43-.22.88-.39,1.35-.07.19-.15.31-.24.38-.07.04-.14.06-.23.06h0ZM92.91,18.05c-.24,0-.36-.15-.36-.43,0-.14.03-.3.1-.48.07-.18.15-.32.24-.41.05-.05.09-.08.14-.1s.11-.03.18-.03c.13,0,.22.03.28.09.06.06.09.17.09.31,0,.18-.03.35-.09.51-.06.16-.15.29-.25.39-.1.1-.21.15-.32.15h-.01Z"/>
    <path d="M95.92,18.16c.19,0,.35.06.46.17.11.1.17.24.17.42,0,.15-.04.31-.13.46-.09.15-.2.28-.33.38-.13.1-.27.15-.4.15-.08,0-.12-.03-.12-.08,0-.02.02-.06.05-.13.1-.17.15-.36.15-.58,0-.11-.01-.16-.04-.16-.03,0-.09.05-.15.14-.07.09-.12.2-.17.32-.08.19-.14.4-.2.62-.05.22-.08.41-.08.56,0,.17.03.31.08.41.05.1.12.15.22.15.09,0,.2-.05.35-.14s.28-.2.41-.34c.05-.07.1-.1.14-.1.06,0,.09.03.09.1,0,.31-.12.59-.36.85-.17.17-.36.3-.58.4-.22.1-.41.15-.58.15-.3,0-.55-.09-.75-.28s-.3-.43-.3-.72.06-.59.19-.91c.13-.32.3-.62.52-.91.22-.29.47-.52.75-.72.2-.14.4-.2.59-.2h.02Z"/>
    <path d="M97.96,21.99c.15,0,.29-.08.41-.22s.18-.29.18-.45c0-.11-.04-.2-.11-.27-.08-.08-.25-.16-.53-.23-.4-.12-.66-.25-.79-.39-.11-.12-.17-.26-.17-.42,0-.29.1-.58.32-.87.21-.29.48-.53.81-.72s.66-.28.99-.28c.16,0,.31.04.46.11s.25.18.34.3c.08.13.13.26.13.41s-.05.29-.14.45c-.09.15-.21.28-.34.39-.14.1-.27.15-.39.15-.07,0-.13-.02-.18-.05-.05-.03-.08-.06-.08-.1s.01-.09.03-.16c.06-.22.08-.41.08-.57s-.05-.31-.14-.45c-.12.09-.21.15-.24.2-.1.11-.17.24-.22.38-.06.14-.09.28-.09.41,0,.09.02.16.06.22.04.05.11.1.21.14.09.04.24.08.43.13.32.08.55.15.68.23.03.02.08.05.14.11.1.1.14.24.14.4,0,.17-.05.35-.16.53-.11.18-.28.36-.51.55-.24.21-.48.35-.72.44-.24.09-.51.13-.8.13s-.5-.06-.66-.17c-.16-.11-.24-.26-.24-.46,0-.14.05-.28.16-.42.11-.14.24-.26.4-.34.16-.09.31-.13.47-.13.11,0,.17.03.17.08,0,.02-.02.07-.05.13-.1.18-.15.34-.15.49,0,.11.04.21.12.3Z"/>
  </g>
</svg>